# xmcd
#
# Track frame offsets:
#	150
#	25602
#	46992
#	66815
#	83270
#	101097
#	122310
#	138802
#	157647
#	168902
#
# Disc length: 2650 seconds
#
# Revision: 1
# Processed by: cddbd v1.5PL3 Copyright (c) Steve Scherf et al.
# Submitted via: CDex 1.50Beta5
#
DISCID=620a580a
DTITLE=ORIGA - リラからの風
DYEAR=1996
DGENRE=Vocal
TTITLE0=リラの街から
TTITLE1=別離のとき
TTITLE2=SINEVA
TTITLE3=ルナパーク
TTITLE4=初雪
TTITLE5=呼ばないで
TTITLE6=神の裁き
TTITLE7=空の端で
TTITLE8=夜のメロディ
TTITLE9=白い炎
EXTD=
EXTT0=
EXTT1=
EXTT2=
EXTT3=
EXTT4=
EXTT5=
EXTT6=
EXTT7=
EXTT8=
EXTT9=
PLAYORDER=
